<?xml version="1.0" encoding="UTF-8"?>
<svg width="64" height="64" version="1.1" viewBox="0 0 210 297" xmlns="http://www.w3.org/2000/svg" xmlns:cc="http://creativecommons.org/ns#" xmlns:dc="http://purl.org/dc/elements/1.1/" xmlns:rdf="http://www.w3.org/1999/02/22-rdf-syntax-ns#">
<metadata>
<rdf:RDF>
<cc:Work rdf:about="">
<dc:format>image/svg+xml</dc:format>
<dc:type rdf:resource="http://purl.org/dc/dcmitype/StillImage"/>
<dc:title/>
</cc:Work>
</rdf:RDF>
</metadata>
<g transform="translate(4.0968 5.4624)" stroke-width="3.7639">
<path d="m100.29 199.8c-1.2832-7.7631-2.3517-25.574-2.3744-39.581l-0.04143-25.466-10.458 11.704c-11.559 12.937-29.91 18.121-64.821 18.311-25.683 0.1396-37.639-2.893-37.639-9.5467 0-8.139 14.75-15.609 45.167-22.874 21.691-5.1809 25.597-7.0174 16.864-7.9287-6.2511-0.65235-23.189-7.5854-37.639-15.407-47.098-25.492-28.509-33.727 39.914-17.682 48.375 11.343 46.215 11.131 43.592 4.2961-2.9041-7.5679 6.9187-14.548 16.288-11.574 5.6617 1.797 7.2233 4.5208 5.5729 9.7208-2.8439 8.9602-2.2328 8.9518 35.72-0.49414 32.329-8.0461 64.387-8.5781 66.843-1.1092 0.7861 2.3904-9.7604 11.703-23.437 20.695l-24.866 16.348 19.967 4.2229c25.837 5.4643 33.141 8.6764 33.141 14.574 0 7.1012-12.811 9.3528-52.695 9.2613-23.964-0.0549-38.861-1.8561-45.167-5.4611-5.1754-2.9585-10.68-5.4392-12.233-5.5125-1.5526-0.0734-2.8229 15.111-2.8229 33.742 0 34.633-4.6914 45.077-8.8759 19.761z" fill="#b1b1b1"/>
<path d="m100.31 194.15c-1.3054-10.868-2.3883-29.012-2.4062-40.32l-0.03272-20.559-10.376 12.428c-11.483 13.755-28.895 18.869-64.903 19.065-25.259 0.1373-37.639-2.8797-37.639-9.1726 0-8.446 10.532-13.854 44.169-22.678 23.198-6.086 29.328-8.7562 20.651-8.996-11.752-0.32472-47.51-16.506-62.374-28.225-3.8301-3.0198-5.8473-7.2969-4.4828-9.5048 3.8215-6.1833 19.878-4.8565 65.293 5.3955 48.948 11.049 47.273 10.898 44.641 4.0391-1.1335-2.9539 0.52102-7.5135 3.6767-10.133 7.5832-6.2935 18.677 0.49412 17.223 10.538-1.0306 7.1229-0.23209 7.093 31.993-1.1977 34.308-8.8265 66.833-11.369 70.455-5.5083 2.5352 4.102-19.756 24.219-36.338 32.794l-12.006 6.2084 25.154 6.3319c28.429 7.1564 32.41 9.6656 25.817 16.271-2.895 2.9004-19.412 5.1243-44.022 5.9271-34.412 1.1226-41.047 0.30638-52.515-6.4599l-13.127-7.7449v35.63c0 38.634-5.0345 47.659-8.8528 15.87z" fill="#8e8e8e"/>
<path d="m100.29 190.78c-1.33-12.725-2.4182-30.869-2.4182-40.32v-17.184l-10.351 12.126c-7.9759 9.3436-15.002 12.981-30.625 15.854-37.107 6.8248-71.942 3.9035-71.942-6.0332 0-8.2792 14.911-15.441 47.049-22.598l30.111-6.7056-15.709-2.8053c-17.782-3.1755-35.055-11.213-53.053-24.687-25.472-19.069-4.0498-21.134 58.657-5.6544 38.754 9.567 42.433 9.9149 40.851 3.8625-2.1276-8.1361 6.598-16.097 14.373-13.113 3.1316 1.2017 5.6938 6.1391 5.6938 10.972v8.787l32.934-8.4738c34.377-8.8449 66.724-11.328 70.386-5.4028 2.5106 4.0621-21.576 24.79-36.511 31.421-5.6929 2.5273-10.351 5.5366-10.351 6.6872s9.7392 4.1392 21.643 6.6414c27.716 5.826 34.646 9.9234 28.011 16.561-5.5284 5.5303-61.165 8.9525-82 5.0438-7.2825-1.3662-16.534-5.7771-20.559-9.8019-7.2479-7.2479-7.3179-6.958-7.3179 30.321 0 41.864-5.1364 50.26-8.8736 14.504z" fill="#6f6f6f"/>
<path d="m99.551 171.94c-2.5221-38.914-3.1102-41.288-7.9421-32.066-7.9172 15.111-24.617 21.656-60.872 23.858-25.801 1.567-34.179 0.77389-40.136-3.7994-6.6941-5.1397-6.9025-6.4087-1.882-11.458 3.1052-3.1227 22.476-10.035 43.047-15.361 39.826-10.311 51.242-15.222 26.01-11.187-17.137 2.7404-42.013-6.235-64.215-23.17-25.42-19.389-4.8179-21.491 58.204-5.9413l42.344 10.448v-8.439c0-4.6415 1.5409-9.3914 3.4243-10.555 6.3716-3.9379 15.395 2.4281 15.395 10.861v8.3835l34.816-8.6911c36.527-9.1181 57.778-10.912 66.177-5.5879 5.9108 3.747-15.185 22.699-36.861 33.116l-13.32 6.4008 24.078 4.9415c13.243 2.7178 26.442 6.9028 29.33 9.2998 10.8 8.9636-2.3564 12.582-45.753 12.582-40.103 0-43.4-0.57283-52.511-9.1249l-9.7213-9.1249v36.191c0 19.905-1.5503 37.149-3.4451 38.32-1.9488 1.2044-4.628-16.123-6.1688-39.896z" fill="#4d4d4d"/>
<path d="m99.878 171.82-2.7186-41.946-7.3458 11.602c-8.8417 13.964-22.767 19.296-57.791 22.127-29.132 2.3549-48.241-2.4724-44.842-11.328 2.6209-6.8299 14.012-11.314 54.235-21.349 36.37-9.0737 44.069-13.257 18.163-9.8689-15.174 1.9847-21.201 0.49731-43.808-10.812-52.385-26.207-40.581-34.175 27.878-18.817 24.321 5.4559 45.624 10.788 47.341 11.849 1.7166 1.0609 3.1211-2.2242 3.1211-7.3003 0-9.4559 5.7584-13.963 14.115-11.048 2.5877 0.90264 4.7049 5.4991 4.7049 10.214v8.5732l36.698-8.8796c40.556-9.8131 59.327-11.147 63.431-4.5073 3.1484 5.0943-12.199 18.676-34.26 30.319l-15.056 7.9457 24.466 5.4335c51.281 11.389 43.056 21.547-17.445 21.547-42.908 0-43.527-0.12459-52.509-10.561l-9.0885-10.561v37.627c0 20.695-1.478 38.54-3.2845 39.657-1.8065 1.1165-4.5079-16.846-6.0031-39.916z" fill="#2d2d2d"/>
<path d="m101.89 187.57c-0.6008-24.65-6.1632-65.634-7.3492-54.149-0.23807 2.3054-4.761 8.5198-10.051 13.81-11.498 11.498-53.059 19.936-79.02 16.043-33.501-5.0237-21.474-17.053 30.14-30.146 20.358-5.1643 37.897-10.271 38.974-11.349 1.0776-1.0776-7.6951-1.9592-19.495-1.9592-22.074 0-46.373-9.3798-66.407-25.635l-9.3739-7.6055 10.391-2.6177c6.6989-1.6875 26.761 1.3629 56.459 8.5849 45.289 11.013 53.8 10.743 49.081-1.556-1.3259-3.4551 1.2845-5.0462 8.2788-5.0462 6.9943 0 9.6046 1.5911 8.2788 5.0462-4.7401 12.352 3.2225 13.132 40.687 3.9808 60.272-14.721 77.745-8.4915 42.589 15.184-13.229 8.9092-24.284 13.428-32.85 13.428-18.539 0-13.245 2.7413 17.975 9.3087 50.682 10.661 53.048 18.292 7.1309 22.997-33.678 3.4504-58.199-0.70596-69.228-11.734l-8.9372-8.9372-0.279 23.353c-0.15345 12.844-1.6352 30.975-3.2928 40.291-2.8462 15.996-3.0521 15.368-3.7018-11.292z" fill="#161616"/>
<path d="m101.81 180.04c-0.38564-19.666-1.9012-38.797-3.368-42.513-2.3532-5.9612-3.6472-5.4295-11.004 4.5217-4.895 6.6208-14.175 12.898-22.475 15.203-16.666 4.6284-68.496 5.1856-75.39 0.81042-7.7546-4.9214 6.0387-14.655 27.438-19.362 10.317-2.2694 28.921-7.0226 41.342-10.563l22.584-6.4363-26.839-2.0924c-21.655-1.6882-30.924-4.5686-47.99-14.911-37.182-22.535-24.659-26.211 38.982-11.442 25.828 5.9937 48.315 10.06 49.972 9.0357 1.657-1.0241 2.5443-4.6983 1.9719-8.165-0.68374-4.1407 1.5417-6.303 6.487-6.303 4.9453 0 7.1708 2.1623 6.487 6.303-1.7815 10.788 4.8145 10.972 44.941 1.2505 42.914-10.397 47.698-10.902 55.643-5.8755 4.4971 2.8452 3.842 4.8139-3.7639 11.311-14.594 12.466-30.584 20.238-46.848 22.77l-15.056 2.3439 22.584 4.7735c57.303 12.112 64.66 19.338 24.164 23.733-22.454 2.4369-49.001 1.1237-64.641-3.1974-3.6312-1.0032-8.9505-6.3062-11.821-11.784-4.8656-9.2864-5.3886-7.4225-7.729 27.547-3.4588 51.679-4.849 54.877-5.6693 13.042z"/>
</g>
</svg>
